<?xml version="1.0" encoding="utf-8"?>
<!-- Generator: Adobe Illustrator 27.5.0, SVG Export Plug-In . SVG Version: 6.00 Build 0)  -->
<svg version="1.1" id="Layer_1" xmlns="http://www.w3.org/2000/svg" xmlns:xlink="http://www.w3.org/1999/xlink" x="0px" y="0px"
	 viewBox="0 0 564 560" style="enable-background:new 0 0 564 560;" xml:space="preserve">
<style type="text/css">
	.st0{fill:#FBFBFD;}
	.st1{fill:#B1E5F2;}
	.st2{fill:#F56246;}
	.st3{fill:#272635;}
	.st4{fill:#E8E9F3;}
</style>
<g>
	<path class="st0" d="M99.75,182.53c10.55,0.01,21.1-0.03,31.65,0.02c0.18,21.49-0.01,42.97,0.09,64.45
		c0.29,3.76-0.31,8.03,2.22,11.18c3.98,3.07,9.31,2.53,14.03,2.92c-0.07,27.21-0.03,54.41-0.02,81.62
		c-15.99-0.05-31.99,0.04-47.98-0.05C99.79,289.29,99.77,235.91,99.75,182.53z"/>
	<path class="st0" d="M432.75,182.53c10.58,0.09,21.16-0.16,31.74,0.13c-0.03,53.35-0.03,106.7,0,160.05
		c-15.92-0.02-31.83,0.03-47.75-0.03c0.05-27.2,0.02-54.39,0.01-81.59c3.98-0.17,8.13,0.07,11.91-1.4c3.02-1.18,3.84-4.73,3.85-7.64
		C433.04,228.89,432.66,205.7,432.75,182.53z"/>
	<path class="st0" d="M188.77,182.77c7.82,0,15.64,0,23.47,0c0,22.11-0.01,44.22,0,66.33c0.01,3.59,0.28,7.88,3.61,10.05
		c4.48,2.87,10.1,1.67,15.11,1.88c-0.05,27.24-0.02,54.47-0.01,81.71c-21.43-0.13-42.85,0.09-64.27-0.11
		c0.19-27.19,0.04-54.38,0.07-81.57c5.37-0.23,10.84,0.53,16.14-0.49c3.9-0.8,6.29-4.64,6.11-8.47
		C189.32,228.98,188.5,205.88,188.77,182.77z"/>
	<path class="st0" d="M270.27,250.04c0.04-22.49,0.05-44.99-0.01-67.48c7.98,0.45,15.98,0.09,23.97,0.21
		c-0.2,22.1-0.47,44.21-0.23,66.33c0.25,3.79,0.22,8.98,4.44,10.67c4.81,1.65,10.04,1.19,15.05,1.29
		c0.01,27.19-0.12,54.39,0.06,81.59c-21.01,0.13-42.03,0.02-63.04,0.05c0.04-27.21,0.03-54.43,0-81.64
		c5.23-0.2,10.62,0.6,15.71-0.87C270.1,258.5,270.01,253.6,270.27,250.04z"/>
	<path class="st0" d="M352.06,182.51c7.72,0.2,15.48-0.33,23.19,0.31c-0.03,22.74-0.02,45.48-0.01,68.22
		c-0.05,3.5,1.17,7.66,4.83,8.9c5.56,1.63,11.46,0.99,17.18,1.12c0,27.2-0.07,54.4,0.03,81.6c-21.45,0.12-42.91-0.01-64.36,0.06
		c0.3-27.24,0.09-54.5,0.13-81.74c5.15,0.33,10.77,0.98,15.53-1.47c3.37-1.88,3.44-6.21,3.49-9.58
		C352.05,227.46,352.07,204.99,352.06,182.51z"/>
</g>
<g>
	<g>
		<path d="M77.17,41.02c5.12-9.29,15.57-14.62,25.88-15.5c117.33-0.04,234.66,0.02,351.99-0.02c9.07-0.26,18.42,2.15,25.71,7.69
			c5.3,3.95,8.87,10.23,9.3,16.84c0.02,8.25-0.23,16.5-0.02,24.74c6.32-0.02,12.64,0.01,18.96-0.02c2.94,0.03,6.03,0.17,8.74,1.47
			c2.78,1.47,4.08,4.72,4.02,7.75c0.01,85.68-0.02,171.37,0.01,257.05c-0.02,4.77,1.24,10.09-1.39,14.4
			c-2.79,3.15-7.43,3.32-11.33,3.56c-150.33,0.05-300.68-0.01-451.01,0.03c-5.06,0.32-11.66,0.6-14.64-4.37
			c-2.25-5.24-0.85-11.13-0.9-16.64c0.02-84.34,0.02-168.68,0-253.01c-0.06-3.04,0.53-6.48,3.17-8.36
			c3.02-2.02,6.81-1.97,10.29-2.04c6.1,0.33,12.2,0.11,18.3,0.17c-0.07-6.24,0.19-12.48-0.21-18.72
			C73.69,50.88,74.57,45.55,77.17,41.02z M102.52,41.65l-0.03,0.78c-5.48,0.14-9.61,5.25-9.87,10.47
			c0.02,7.08,0.17,14.16-0.08,21.24c3.11,0.75,6.31,0.7,9.48,0.64c123.06-0.01,246.12,0.01,369.18-0.01
			c0.59-5.93,0.1-11.9,0.43-17.85c0.07-4.41-0.45-9.6-4.22-12.49c-4.35-3.35-10.22-2.88-15.4-2.94
			c-77.33-0.02-154.66-0.17-231.99,0.01C180.85,41.6,141.68,41.29,102.52,41.65z M61.48,91.02c0.04,83.91,0.01,167.82,0.02,251.73
			c6.25,0,12.5,0,18.75,0c0-55.94,0-111.87,0-167.81c0.02-2.76,0.74-5.91,3.29-7.42c2.58-1.39,5.6-1.62,8.47-1.76
			c126.66-0.02,253.32,0,379.98-0.01c3.39,0.15,7.26-0.14,10,2.25c1.79,2.2,1.9,5.2,2.01,7.9c0.01,55.62-0.01,111.24,0.01,166.86
			c6.16-0.01,12.32-0.01,18.49-0.01c0-83.83,0-167.67,0-251.5c-15.82-0.39-31.65-0.22-47.48-0.25
			C323.84,91.02,192.66,90.97,61.48,91.02z M99.75,182.53c0.02,53.38,0.04,106.76-0.01,160.14c15.99,0.09,31.99,0,47.98,0.05
			c-0.01-27.21-0.05-54.41,0.02-81.62c-4.72-0.39-10.05,0.15-14.03-2.92c-2.53-3.15-1.93-7.42-2.22-11.18
			c-0.1-21.48,0.09-42.96-0.09-64.45C120.85,182.5,110.3,182.54,99.75,182.53z M432.75,182.53c-0.09,23.17,0.29,46.36-0.24,69.52
			c-0.01,2.91-0.83,6.46-3.85,7.64c-3.78,1.47-7.93,1.23-11.91,1.4c0.01,27.2,0.04,54.39-0.01,81.59
			c15.92,0.06,31.83,0.01,47.75,0.03c-0.03-53.35-0.03-106.7,0-160.05C453.91,182.37,443.33,182.62,432.75,182.53z M150.28,182.21
			c-0.68,16.58-0.1,33.22-0.29,49.82c0.24,4.36-0.64,8.84,0.6,13.1c6.25-0.18,12.51-0.21,18.76,0.02c0.8-1.98,0.74-4.14,0.7-6.23
			c-0.24-18.88,0.28-37.78-0.25-56.65C163.31,181.77,156.77,181.87,150.28,182.21z M188.77,182.77
			c-0.27,23.11,0.55,46.21,0.23,69.33c0.18,3.83-2.21,7.67-6.11,8.47c-5.3,1.02-10.77,0.26-16.14,0.49
			c-0.03,27.19,0.12,54.38-0.07,81.57c21.42,0.2,42.84-0.02,64.27,0.11c-0.01-27.24-0.04-54.47,0.01-81.71
			c-5.01-0.21-10.63,0.99-15.11-1.88c-3.33-2.17-3.6-6.46-3.61-10.05c-0.01-22.11,0-44.22,0-66.33
			C204.41,182.77,196.59,182.77,188.77,182.77z M231.2,182.27c-0.2,2.23-0.27,4.48-0.25,6.73c0.27,18.67-0.36,37.36,0.32,56.01
			c6.47,0.36,12.94-0.01,19.41,0.23c0.38-2.07,0.41-4.18,0.35-6.28c-0.12-18.69,0.08-37.4-0.09-56.09l-0.65-0.7
			C243.95,181.86,237.54,181.79,231.2,182.27z M270.27,250.04c-0.26,3.56-0.17,8.46-4.05,10.15c-5.09,1.47-10.48,0.67-15.71,0.87
			c0.03,27.21,0.04,54.43,0,81.64c21.01-0.03,42.03,0.08,63.04-0.05c-0.18-27.2-0.05-54.4-0.06-81.59
			c-5.01-0.1-10.24,0.36-15.05-1.29c-4.22-1.69-4.19-6.88-4.44-10.67c-0.24-22.12,0.03-44.23,0.23-66.33
			c-7.99-0.12-15.99,0.24-23.97-0.21C270.32,205.05,270.31,227.55,270.27,250.04z M312.89,182.58c0.25,20.8,0.05,41.62,0.1,62.43
			c6.67,0.01,13.35-0.02,20.02,0c0.06-20.87-0.15-41.75,0.11-62.62c-3.33-0.78-6.76-0.31-10.14-0.39
			C319.62,182.09,316.16,181.53,312.89,182.58z M352.06,182.51c0.01,22.48-0.01,44.95,0.01,67.42c-0.05,3.37-0.12,7.7-3.49,9.58
			c-4.76,2.45-10.38,1.8-15.53,1.47c-0.04,27.24,0.17,54.5-0.13,81.74c21.45-0.07,42.91,0.06,64.36-0.06
			c-0.1-27.2-0.03-54.4-0.03-81.6c-5.72-0.13-11.62,0.51-17.18-1.12c-3.66-1.24-4.88-5.4-4.83-8.9
			c-0.01-22.74-0.02-45.48,0.01-68.22C367.54,182.18,359.78,182.71,352.06,182.51z M393.87,182.6c0.4,20.85-0.17,41.71,0.28,62.55
			c6.55-0.12,13.11,0.26,19.65-0.21c0.17-2.3,0.27-4.6,0.25-6.9c-0.21-18.64,0.23-37.3-0.23-55.93
			C407.19,182.19,400.4,181.3,393.87,182.6z"/>
	</g>
	<g>
		<path d="M90.57,104.53c30.82-0.09,61.63,0.04,92.45-0.07c3.05,0.06,6.44,0.53,8.65,2.84c2.59,3.26,2.88,7.65,2.85,11.66
			c-0.09,7.82,0.07,15.65-0.06,23.47c-0.02,2.83-1.3,5.88-4.07,7.02c-3.92,1.58-8.24,1.3-12.38,1.31
			c-29.36-0.01-58.72-0.01-88.07-0.01c-2.63-0.09-5.54-0.28-7.63-2.03c-2.06-1.96-2.28-5.04-2.32-7.71c0.01-8.35,0.02-16.7,0-25.05
			c-0.01-2.98,0.33-6.26,2.46-8.54C84.65,105.44,87.7,104.75,90.57,104.53z M99.75,121c0,4.42,0,8.83,0,13.25c25.33,0,50.67,0,76,0
			c0-4.33,0-8.67,0-13C150.41,121.42,125.09,120.83,99.75,121z"/>
	</g>
	<g>
		<path d="M239.3,105.24c6.73-0.87,13.86,0.14,19.72,3.71c6.09,3.54,10.49,9.97,11.24,17.01c0.92,7.24-2.49,14.77-8.42,18.96
			c-6.5,4.71-14.87,6.66-22.79,5.48c-7.31-0.47-14.6-3.8-19.01-9.77c-4.37-5.68-4.8-13.75-1.75-20.13
			C222.03,112.18,230.5,106.76,239.3,105.24z M242.37,121.38c-4.11,1.01-8.51,5.65-5.78,9.95c3.74,5.32,12.7,3.67,14.59-2.44
			C252.62,123.86,246.82,120.04,242.37,121.38z"/>
	</g>
	<path d="M432.74,117.51c6.17-0.01,12.35-0.02,18.52,0.01c0.11,10.4-0.31,20.82,0.3,31.22c-6.34,0.04-12.67-0.04-19,0.05
		C432.99,138.37,432.64,127.93,432.74,117.51z"/>
	<path d="M304.75,117.8c6.07-0.54,12.17-0.21,18.26-0.3c-0.03,10.42,0.01,20.84-0.02,31.26c-6.09-0.04-12.18,0.05-18.27-0.05
		C304.78,138.4,304.74,128.1,304.75,117.8z"/>
	<path d="M337,117.78c6.06-0.54,12.17-0.17,18.25-0.28c0.02,10.4-0.05,20.8,0.04,31.19c-6.09,0.13-12.19,0.02-18.28,0.07
		C336.99,138.43,337.01,128.11,337,117.78z"/>
	<path d="M368.75,117.5c6.07,0.01,12.14-0.01,18.21,0.01c0.69,10.36,0.03,20.77,0.36,31.15c-6.2,0.16-12.42,0.12-18.62,0.02
		C368.81,138.29,368.72,127.89,368.75,117.5z"/>
	<path d="M400.75,117.5c6.09,0,12.17,0.01,18.26,0c-0.02,10.5-0.01,21-0.01,31.51c-6,0.04-12-0.44-18-0.25
		C400.92,138.34,400.61,127.93,400.75,117.5z"/>
	<path d="M464.57,117.48c6.1,0.11,12.2-0.14,18.3,0.15c1.35,10.43-1.22,21.06,0.99,31.39c-5.96,0.01-11.91-0.46-17.87-0.24
		c-0.85-4.23-0.34-8.56-0.55-12.83C465.13,129.79,464.9,123.63,464.57,117.48z"/>
</g>
<g>
	<g>
		<path class="st1" d="M61.48,91.02c131.18-0.05,262.36,0,393.54-0.02c15.83,0.03,31.66-0.14,47.48,0.25c0,83.83,0,167.67,0,251.5
			c-6.17,0-12.33,0-18.49,0.01c-0.02-55.62,0-111.24-0.01-166.86c-0.11-2.7-0.22-5.7-2.01-7.9c-2.74-2.39-6.61-2.1-10-2.25
			c-126.66,0.01-253.32-0.01-379.98,0.01c-2.87,0.14-5.89,0.37-8.47,1.76c-2.55,1.51-3.27,4.66-3.29,7.42c0,55.94,0,111.87,0,167.81
			c-6.25,0-12.5,0-18.75,0C61.49,258.84,61.52,174.93,61.48,91.02z M90.57,104.53c-2.87,0.22-5.92,0.91-8.12,2.89
			c-2.13,2.28-2.47,5.56-2.46,8.54c0.02,8.35,0.01,16.7,0,25.05c0.04,2.67,0.26,5.75,2.32,7.71c2.09,1.75,5,1.94,7.63,2.03
			c29.35,0,58.71,0,88.07,0.01c4.14-0.01,8.46,0.27,12.38-1.31c2.77-1.14,4.05-4.19,4.07-7.02c0.13-7.82-0.03-15.65,0.06-23.47
			c0.03-4.01-0.26-8.4-2.85-11.66c-2.21-2.31-5.6-2.78-8.65-2.84C152.2,104.57,121.39,104.44,90.57,104.53z M239.3,105.24
			c-8.8,1.52-17.27,6.94-21.01,15.26c-3.05,6.38-2.62,14.45,1.75,20.13c4.41,5.97,11.7,9.3,19.01,9.77
			c7.92,1.18,16.29-0.77,22.79-5.48c5.93-4.19,9.34-11.72,8.42-18.96c-0.75-7.04-5.15-13.47-11.24-17.01
			C253.16,105.38,246.03,104.37,239.3,105.24z M432.74,117.51c-0.1,10.42,0.25,20.86-0.18,31.28c6.33-0.09,12.66-0.01,19-0.05
			c-0.61-10.4-0.19-20.82-0.3-31.22C445.09,117.49,438.91,117.5,432.74,117.51z M304.75,117.8c-0.01,10.3,0.03,20.6-0.03,30.91
			c6.09,0.1,12.18,0.01,18.27,0.05c0.03-10.42-0.01-20.84,0.02-31.26C316.92,117.59,310.82,117.26,304.75,117.8z M337,117.78
			c0.01,10.33-0.01,20.65,0.01,30.98c6.09-0.05,12.19,0.06,18.28-0.07c-0.09-10.39-0.02-20.79-0.04-31.19
			C349.17,117.61,343.06,117.24,337,117.78z M368.75,117.5c-0.03,10.39,0.06,20.79-0.05,31.18c6.2,0.1,12.42,0.14,18.62-0.02
			c-0.33-10.38,0.33-20.79-0.36-31.15C380.89,117.49,374.82,117.51,368.75,117.5z M400.75,117.5c-0.14,10.43,0.17,20.84,0.25,31.26
			c6-0.19,12,0.29,18,0.25c0-10.51-0.01-21.01,0.01-31.51C412.92,117.51,406.84,117.5,400.75,117.5z M464.57,117.48
			c0.33,6.15,0.56,12.31,0.87,18.47c0.21,4.27-0.3,8.6,0.55,12.83c5.96-0.22,11.91,0.25,17.87,0.24
			c-2.21-10.33,0.36-20.96-0.99-31.39C476.77,117.34,470.67,117.59,464.57,117.48z"/>
	</g>
	<path class="st1" d="M99.75,121c25.34-0.17,50.66,0.42,76,0.25c0,4.33,0,8.67,0,13c-25.33,0-50.67,0-76,0
		C99.75,129.83,99.75,125.42,99.75,121z"/>
</g>
<g>
	<path class="st2" d="M242.37,121.38c4.45-1.34,10.25,2.48,8.81,7.51c-1.89,6.11-10.85,7.76-14.59,2.44
		C233.86,127.03,238.26,122.39,242.37,121.38z"/>
</g>
<path class="st3" d="M150.28,182.21c6.49-0.34,13.03-0.44,19.52,0.06c0.53,18.87,0.01,37.77,0.25,56.65c0.04,2.09,0.1,4.25-0.7,6.23
	c-6.25-0.23-12.51-0.2-18.76-0.02c-1.24-4.26-0.36-8.74-0.6-13.1C150.18,215.43,149.6,198.79,150.28,182.21z"/>
<path class="st3" d="M231.2,182.27c6.34-0.48,12.75-0.41,19.09-0.1l0.65,0.7c0.17,18.69-0.03,37.4,0.09,56.09
	c0.06,2.1,0.03,4.21-0.35,6.28c-6.47-0.24-12.94,0.13-19.41-0.23c-0.68-18.65-0.05-37.34-0.32-56.01
	C230.93,186.75,231,184.5,231.2,182.27z"/>
<path class="st3" d="M312.89,182.58c3.27-1.05,6.73-0.49,10.09-0.58c3.38,0.08,6.81-0.39,10.14,0.39
	c-0.26,20.87-0.05,41.75-0.11,62.62c-6.67-0.02-13.35,0.01-20.02,0C312.94,224.2,313.14,203.38,312.89,182.58z"/>
<path class="st3" d="M393.87,182.6c6.53-1.3,13.32-0.41,19.95-0.49c0.46,18.63,0.02,37.29,0.23,55.93c0.02,2.3-0.08,4.6-0.25,6.9
	c-6.54,0.47-13.1,0.09-19.65,0.21C393.7,224.31,394.27,203.45,393.87,182.6z"/>
<g>
	<path class="st4" d="M117.09,398.03c14.75-11.03,34.12-14.1,52.1-12.44c17.43,1.44,35.13,9,45.51,23.58
		c10.77,14.48,13.22,33.27,12.04,50.84c-0.44,13.3-4.3,26.52-11.63,37.67c3.45,3.29,6.82,6.67,10.28,9.95
		c-6.12,6.07-12.22,12.17-18.33,18.26c-3.72-3.64-7.43-7.28-11.13-10.93c-18.08,8.82-39.39,10.12-58.68,4.77
		c-14.4-3.74-27.28-13.35-34.37-26.51c-8.62-15.18-9.61-33.28-8.4-50.32C95.53,425.77,103.08,408.44,117.09,398.03z M144.04,426.09
		c-5.83,7.2-7.08,16.89-6.95,25.87c-0.18,9.58,0.52,19.79,5.87,28.06c5.13,8.21,16.54,10.47,25.22,7.31
		c-4.87-4.96-9.81-9.85-14.75-14.75c6.19-6.12,12.33-12.3,18.49-18.44c3.54,3.56,7.01,7.17,10.59,10.69
		c1.75-9.42,1.65-19.31-0.66-28.63c-1.76-6.58-5.8-13.29-12.65-15.44C160.78,418.02,150.03,418.9,144.04,426.09z"/>
</g>
<path class="st4" d="M243.58,387.59c14.18,0.02,28.37,0.01,42.55,0.01c11,20.53,21.95,41.08,32.93,61.62
	c10.93-20.53,21.82-41.09,32.75-61.63c13.87,0.01,27.74,0.02,41.61,0c-0.03,44.13,0,88.27-0.01,132.41c-13.96,0-27.93,0-41.89,0
	c0.01-20.35-0.04-40.69,0.03-61.04c0-1.13-0.12-2.24-0.36-3.33c-7.18,13.18-14.23,26.44-21.34,39.66
	c-7.57-0.02-15.14-0.01-22.71-0.01c-7.2-13.34-14.26-26.77-21.59-40.04c-0.16,21.58-0.02,43.17-0.07,64.76c-13.96,0-27.93,0-41.89,0
	C243.58,475.86,243.61,431.73,243.58,387.59z"/>
<path class="st4" d="M415.85,387.6c14.08,0,28.16,0,42.25,0c-0.01,44.13,0,88.26-0.01,132.4c-14.08,0-28.15,0-42.23,0
	C415.85,475.86,415.86,431.73,415.85,387.6z"/>
</svg>
